HIERARCHY
ROOT pelvis
{
  OFFSET 0 100 0
  CHANNELS 6 Xposition Yposition Zposition Zrotation Xrotation Yrotation
  JOINT pelvis_right_femur
  {
    OFFSET -10.78128 -3.44521 -0.5502486
    CHANNELS 3 Zrotation Xrotation Yrotation
    JOINT right_femur_tibia
    {
      OFFSET -0.8047443 -44.0398 -0.1307829
      CHANNELS 3 Zrotation Xrotation Yrotation
      JOINT right_tibia_foot
      {
        OFFSET 3.006224 -47.83518 -5
        CHANNELS 3 Zrotation Xrotation Yrotation
        End Site
        {
          OFFSET 0 -5 15
        }
      }
    }
  }
  JOINT pelvis_left_femur
  {
    OFFSET 10.78128 -3.44521 -0.5502486
    CHANNELS 3 Zrotation Xrotation Yrotation
    JOINT left_femur_tibia
    {
      OFFSET 0.8047443 -44.0398 -0.1307829
      CHANNELS 3 Zrotation Xrotation Yrotation
      JOINT left_tibia_foot
      {
        OFFSET -4.370144 -48.10324 -4.275266
        CHANNELS 3 Zrotation Xrotation Yrotation
        End Site
        {
          OFFSET 0 -5 15
        }
      }
    }
  }
  JOINT pelvis_spine1
  {
    OFFSET 0 6.468898 -3.129235
    CHANNELS 3 Zrotation Xrotation Yrotation
    JOINT spine1
    {
      OFFSET 0 23.15396 4.99043
      CHANNELS 3 Zrotation Xrotation Yrotation
      JOINT spine2
      {
        OFFSET 0 20.79997 -5.064912
        CHANNELS 3 Zrotation Xrotation Yrotation
        JOINT neck
        {
          OFFSET 0 14.38658 9.616178
          CHANNELS 3 Zrotation Xrotation Yrotation
          End Site
          {
            OFFSET 0 20 0
          }
        }
      }
      JOINT right_manubrium
      {
        OFFSET -5.722621 16.35077 3.967754
        CHANNELS 3 Zrotation Xrotation Yrotation
        JOINT right_clavicle
        {
          OFFSET -13.16364 1.694482 -4.693211
          CHANNELS 3 Zrotation Xrotation Yrotation
          JOINT right_humerus
          {
            OFFSET -28.5034 -0.3100689 -2.792744
            CHANNELS 3 Zrotation Xrotation Yrotation
            JOINT right_radius
            {
              OFFSET -25.15693 0.02248979 -1.271978
              CHANNELS 3 Zrotation Xrotation Yrotation
              End Site
              {
                OFFSET -15 0 0
              }
            }
          }
        }
      }
      JOINT left_manubrium
      {
        OFFSET 5.722621 16.35077 3.967754
        CHANNELS 3 Zrotation Xrotation Yrotation
        JOINT left_clavicle
        {
          OFFSET 13.16364 1.694482 -4.693211
          CHANNELS 3 Zrotation Xrotation Yrotation
          JOINT left_humerus
          {
            OFFSET 29.39168 -1.063119 -2.237045
            CHANNELS 3 Zrotation Xrotation Yrotation
            JOINT left_radius
            {
              OFFSET 24.59957 -0.9528479 0.9047498
              CHANNELS 3 Zrotation Xrotation Yrotation
              End Site
              {
                OFFSET 15 -0 -0
              }
            }
          }
        }
      }
    }
  }
}
MOTION
Frames: 21
Frame Time: 0.0416666666667
0 103.5113 0 1.496991 -0.6513482 0.187591 2.863233 -16.80419 10.2815 -0 40.15498 -0 -4.51847 -17.92292 -3.186584 -7.869226 9.717667 -23.20918 -0 3.869696 -0 14.56702 -14.03352 29.70361 -4.622506 -3.851236 4.970297 2.730274 10.16642 -7.345577 1.507056 21.95368 6.752239 2.496036 -24.121 10.35946 6.947333 -19.78333 11.79714 84.72848 38.55242 -17.08251 -0 0 16.14596 -6.875059 9.178481 4.545685 5.804515 -18.72247 -1.041937 -91.11963 21.12842 19.17746 0 0 -14.89656 15.06083 13.73114 -4.330613
0.4305546 103.3677 1.71717 1.168549 -0.2208688 0.3436609 3.445358 -18.53632 10.04399 -0 38.91321 -0 -4.721722 -16.71546 -2.939506 -7.637822 9.882015 -22.74129 -0 4.408248 -0 14.47374 -14.25874 29.31203 -4.360212 -3.647071 4.88988 2.806861 10.24155 -7.428467 1.520182 21.76098 6.805789 2.610275 -24.44157 10.37958 6.914597 -19.72189 11.80119 84.88043 38.62747 -17.28707 -0 0 15.86628 -6.952101 9.244949 4.555759 5.970723 -19.01221 -1.06461 -90.99778 20.6497 19.05463 0 0 -15.26546 15.69119 13.52547 -4.86462
0.8467786 103.1954 3.727547 0.6336452 0.7982633 0.4756824 4.643585 -21.77729 9.932644 -0 35.50041 -0 -4.706763 -15.34883 -2.611396 -7.321287 10.32975 -22.03598 -0 5.35014 -0 14.35488 -14.9106 28.8003 -3.956726 -3.3712 4.88745 3.029248 10.19689 -7.617671 1.58113 21.35677 6.830255 2.711721 -25.09172 10.47354 6.819867 -19.59907 11.7163 85.13775 38.83871 -17.799 -0 0 15.50864 -6.58508 9.23066 4.342634 6.318175 -19.39981 -0.9101604 -90.9303 20.12224 18.92141 0 0 -16.17001 16.45268 13.07593 -5.435331
1.252895 102.9566 5.948547 0.3094179 1.543299 0.6079039 5.449505 -23.94339 9.869942 -0 32.76594 -0 -4.642031 -14.47118 -2.395675 -7.151764 10.64549 -21.52578 -0 5.992761 -0 14.24229 -15.44975 28.40855 -3.718167 -3.218265 4.923568 3.194012 10.13879 -7.761667 1.616689 21.0712 6.826901 2.759939 -25.55315 10.51481 6.714245 -19.52731 11.64632 85.37402 38.93426 -18.24675 -0 0 15.24611 -6.295247 9.177387 4.198857 6.557609 -19.68393 -0.7866655 -90.87636 19.87978 18.83525 0 0 -16.98156 16.79318 12.76023 -5.616835
1.641888 102.6505 8.380889 0.009005774 2.10871 0.7423552 6.106583 -25.85138 9.629921 -0 30.19662 -0 -4.751298 -13.31208 -2.19214 -6.954356 11.01608 -20.98536 -0 6.64867 -0 13.70779 -16.14291 27.73759 -3.466313 -3.029787 4.884195 3.305265 10.06802 -7.881955 1.638084 20.86834 6.822406 2.833471 -25.93681 10.47072 6.521587 -19.45181 11.58343 85.72032 38.70219 -18.77963 -0 0 14.89993 -6.21067 9.057559 4.1738 6.72772 -20.01113 -0.7993808 -90.86205 20.08732 18.81996 0 0 -17.91257 16.55623 12.7196 -5.100104
2.0123 102.2414 11.1364 -0.3175523 2.507464 0.9095458 6.554433 -28.06456 8.654486 -0 27.17828 -0 -5.24997 -10.93637 -1.738095 -6.678833 11.36614 -19.94821 -0 7.365543 -0 12.78478 -16.98493 26.36467 -3.120621 -2.719014 4.712007 3.327001 10.14115 -7.989236 1.597412 20.71278 6.855063 2.994784 -26.25034 10.25274 6.123357 -19.38141 11.58978 86.36483 37.9238 -19.48519 -0 0 14.16645 -6.860483 8.985685 4.514499 6.928131 -20.70801 -1.118118 -90.49905 20.11112 18.48962 0 0 -19.39852 16.34777 12.77057 -4.544109
2.356555 101.6654 14.30177 -0.6096709 2.810478 1.125273 6.789523 -30.45199 7.14395 -0 23.20545 -0 -5.90272 -8.012198 -1.175621 -6.389408 11.83919 -18.57865 -0 8.086725 -0 11.3566 -18.14075 24.40384 -2.737891 -2.339249 4.476679 3.2938 10.19483 -8.08195 1.53749 20.61598 6.85961 3.154033 -26.47407 9.902414 5.482651 -19.27821 11.58218 87.25113 36.56559 -20.38242 -0 0 13.172 -7.88008 8.83009 5.052526 7.147619 -21.6096 -1.622391 -89.93645 20.37119 17.92276 0 0 -21.46476 15.70279 12.95865 -3.461901
2.667124 100.777 18.04301 -0.7387323 2.808817 1.425837 6.389674 -32.88123 4.383796 -0 17.58341 -0 -6.818034 -4.140025 -0.3741389 -6.145598 12.46266 -16.49141 -0 8.639295 -0 9.259768 -19.66218 21.40373 -2.346532 -1.880668 4.140088 3.12032 10.2805 -8.121705 1.420959 20.66988 6.801274 3.278171 -26.38883 9.280733 4.350843 -19.11658 11.56993 88.58808 34.06532 -21.52069 -0 0 11.6201 -9.790582 8.563539 6.032824 7.431802 -22.95093 -2.511427 -88.75735 20.5814 16.59739 0 0 -24.61949 14.71612 13.23819 -2.045489
2.924728 99.35932 22.55717 -0.4380927 2.23919 1.854899 4.905548 -34.57358 0.006799072 -0 9.654535 -0 -7.818381 0.03444803 0.4551051 -6.118504 13.52164 -13.5852 -0 8.825156 -0 6.301028 -21.5953 17.22242 -2.09853 -1.474706 3.722475 2.745453 10.25526 -8.059204 1.267577 21.04516 6.54549 3.208098 -25.61928 8.30475 2.468834 -18.77229 11.45805 90.49593 29.86638 -22.88555 -0 0 9.337384 -12.62526 7.998034 7.425936 7.76299 -24.70703 -3.827663 -86.69249 20.87167 13.9644 0 0 -29.16409 13.00249 13.62495 -0.08003078
3.08659 97.30459 28.02434 0.5163017 0.7105395 2.462022 2.564283 -33.89897 -5.2232 -0 0.910029 -0 -8.679863 3.017645 0.6083849 -6.463 15.58812 -10.14462 -0 9.277217 -0 2.840181 -23.23839 12.57625 -2.14278 -1.496276 3.182616 2.154576 9.986183 -7.891503 1.14181 21.95974 5.929718 2.756753 -23.65479 7.04616 -0.1481492 -17.97444 11.13097 92.95688 23.99968 -24.30019 -0 0 6.231513 -15.8621 7.056464 8.784836 7.981484 -26.54409 -5.401085 -83.72068 21.08657 9.558807 0 0 -34.33469 10.59735 14.1089 1.993056
3.115156 95.45218 34.35014 0.8432856 -0.6407212 3.124104 2.73629 -31.18107 -6.147396 0 -0.6125399 0 -9.653421 3.186356 -0.7871569 -6.433169 18.33864 -8.134124 -0 14.45375 -0 0.5938127 -22.09337 10.44224 -1.767436 -2.314781 2.512148 1.86811 9.679887 -7.99347 1.175841 22.73188 5.272366 2.1116 -21.9211 6.448587 -1.71863 -16.82598 10.6724 94.82665 20.54722 -25.47704 -0 0 3.777221 -16.57307 6.552351 8.653529 7.490518 -27.04016 -6.0003 -82.25789 21.42975 6.816765 0 0 -35.62838 8.658147 14.4379 3.322386
3.100424 95.05513 40.98612 -0.8874494 -0.130426 3.494235 6.507834 -28.62216 -1.378497 -0 7.846967 -0 -11.16773 2.155624 -2.07931 -5.137834 17.64678 -8.609688 -0 27.36506 -0 0.1661977 -16.79349 11.01372 0.01895627 -3.196817 2.421762 2.199112 10.199 -8.481692 1.192284 22.18491 5.359367 1.85449 -23.02904 7.100052 -0.9086995 -16.84743 10.6134 94.95274 22.73098 -26.0042 -0 0 4.386735 -14.3708 7.429182 7.545943 6.023974 -25.78577 -5.191812 -84.59006 21.72636 10.82722 0 0 -31.17544 8.373611 14.0007 4.125498
3.180218 95.69656 47.50647 -2.212437 0.006382499 3.526706 8.795106 -24.89294 1.975678 -0 14.36532 -0 -12.16419 0.6658836 -2.358825 -4.104028 13.38171 -9.11605 -0 40.39575 -0 0.310835 -11.53465 11.46468 1.460753 -3.36768 3.146033 2.354948 11.19179 -8.644822 1.192103 21.58628 5.551902 1.868173 -24.27999 7.659186 -0.01234915 -17.72451 10.90245 94.47673 25.17126 -25.60167 -0 0 6.251522 -13.32331 8.637646 7.193206 4.704971 -24.72934 -4.718848 -87.12472 21.22593 15.71727 0 0 -26.91434 8.802162 13.43217 4.506384
3.353391 96.85821 53.7514 -2.446161 -0.8749098 3.193846 9.085482 -20.08721 2.995919 -0 16.84026 -0 -12.65209 -1.411161 -2.446147 -3.545037 8.148807 -9.03701 -0 50.57965 -0 0.4873346 -7.837642 11.62427 1.932989 -3.016905 4.052216 2.2113 12.01586 -8.404039 1.252367 21.54146 5.468038 1.942028 -24.35585 7.696567 0.4211802 -18.39352 11.25067 93.84332 26.452 -24.56362 -0 0 7.794938 -13.48788 9.645726 7.257397 3.839005 -24.13985 -4.817787 -88.5362 20.60701 18.54965 0 0 -23.86415 9.180902 13.27967 4.491386
3.544839 98.25793 59.57798 -2.009148 -2.20462 2.60467 8.405993 -14.65137 2.831082 -0 16.77308 -0 -12.87944 -3.921062 -2.484145 -3.122781 2.347 -8.675502 -0 57.7783 -0 0.549648 -5.437888 11.74098 1.696825 -2.310141 4.938575 1.908641 12.51784 -7.861576 1.318465 21.85652 5.231876 2.089266 -23.69756 7.365538 0.7366897 -18.78029 11.62343 92.87246 27.40126 -22.96263 -0 0 9.102219 -14.0895 10.44622 7.481482 3.301004 -23.67137 -5.148344 -89.42859 20.29484 20.18275 0 0 -21.23691 9.270706 13.47605 4.427664
3.690662 99.61264 64.90621 -1.195764 -3.609741 1.901741 7.337858 -8.980689 2.08107 -0 15.03852 -0 -12.98488 -6.585537 -2.45314 -2.668181 -3.715024 -8.192148 -0 61.38358 -0 0.4580927 -4.254699 12.10657 0.9382568 -1.363779 5.683281 1.533878 12.61232 -7.084212 1.356695 22.40754 4.962151 2.356717 -22.57476 6.792656 1.133968 -18.87922 11.97361 91.40677 28.49871 -20.77296 -0 0 10.23639 -14.794 10.99782 7.792879 3.106699 -23.15965 -5.445881 -90.15935 20.33128 21.04886 0 0 -18.60934 9.095644 13.93545 4.330767
3.772593 100.6604 69.74419 -0.273077 -4.734618 1.198667 6.273688 -3.341522 1.175626 -0 12.27032 -0 -13.04617 -9.169717 -2.295841 -2.06923 -9.905592 -7.620632 -0 60.90819 -0 0.2897797 -4.086912 12.95697 -0.1212232 -0.3280542 6.24902 1.176221 12.308 -6.17756 1.329436 23.03999 4.751764 2.725695 -21.3039 6.106615 1.668438 -18.8391 12.25343 89.36602 29.98632 -17.97704 -0 0 11.34027 -15.43221 11.22876 8.25343 3.245217 -22.52336 -5.468538 -90.95111 20.59559 21.55776 0 0 -15.87574 8.718328 14.423 4.240351
3.816895 101.1788 74.20951 0.4907458 -5.25994 0.5496411 5.485965 1.930631 0.411626 -0 9.001761 -0 -13.07779 -11.49991 -1.973943 -1.222752 -15.95157 -6.889792 -0 55.87958 -0 0.1867283 -4.64633 14.40527 -1.198749 0.597931 6.602615 0.9210159 11.6789 -5.29951 1.203393 23.58047 4.654579 3.090106 -20.21749 5.441299 2.223958 -18.90366 12.4038 86.8242 31.76031 -14.65471 -0 0 12.56716 -15.96179 11.02317 8.99988 3.660237 -21.76006 -5.047462 -91.83579 20.91255 21.99485 0 0 -13.29475 8.187841 14.62498 4.260402
3.876579 101.0203 78.51882 0.8326874 -5.013428 -0.05669481 5.128979 6.521025 -0.06383731 -0 5.80999 -0 -13.03381 -13.59316 -1.489551 -0.01951603 -21.42163 -5.88266 -0 46.28882 -0 0.2599314 -5.48201 16.3259 -1.959378 1.199542 6.708933 0.8139131 10.86066 -4.627032 0.9671215 23.86975 4.677106 3.289093 -19.5838 4.925059 2.547206 -19.34576 12.37374 84.06071 33.37451 -11.04754 -0 0 14.08551 -16.47467 10.31524 10.16711 4.216098 -20.9219 -4.178728 -92.68516 21.12734 22.54283 0 0 -11.31627 7.526088 14.29793 4.555169
4.007493 100.1606 82.93921 0.6045344 -4.097048 -0.6698307 5.151762 10.28815 -0.310323 -0 3.41007 -0 -12.8273 -15.67403 -0.882476 1.499188 -25.73086 -4.651899 -0 33.37057 -0 0.4318382 -6.045427 18.26585 -2.154979 1.324903 6.564932 0.8244172 9.987379 -4.269357 0.6594852 23.8542 4.790838 3.22304 -19.45569 4.648324 2.424068 -20.24858 12.12996 81.51469 34.30257 -7.586359 -0 0 15.95131 -17.13422 9.215238 11.73421 4.7218 -20.06307 -3.070404 -93.30545 21.21822 23.23348 0 0 -10.18399 6.763839 13.49833 5.231884
4.248545 98.73497 87.72582 -0.03232485 -2.914107 -1.335482 5.225514 13.46075 -0.5223713 -0 2.545896 -0 -12.38265 -17.72252 -0.1996948 2.881424 -28.37761 -3.639531 -0 20.03975 -0 0.4477349 -5.99303 19.68328 -1.868722 0.967647 6.278042 0.8472748 9.138204 -4.159523 0.3905825 23.65817 4.943889 2.970276 -19.59848 4.620646 1.8995 -21.31994 11.66896 79.586 34.33785 -4.739418 -0 0 17.90457 -18.03642 8.000372 13.43313 5.03194 -19.18792 -2.029806 -93.61984 21.3126 23.9376 0 0 -9.5559 5.965621 12.6116 6.205119
